PathFileType  4	(X/Y/Z) C:\Users\antoi\Documents\MyRepositories\mobilecap\ResultsAnalysis
DataRate	CameraRate	NumFrames	NumMarkers	Units	OrigDataRate	OrigDataStartFrame	OrigNumFrames
100.0	100.0	4	51	mm	100.0	113	901
Frame#	Time	r_knee			r_shank_antsup			r_ankle			r_calc			r_5meta			r_toe			L_knee			L_shank_antsup			L_ankle			L_calc			L_5meta			L_toe			r_sh2			r_sh3			r_sh4			L_sh2			L_sh3			r_thigh1			r_thigh2			r_thigh3			r_thigh4			r_thigh5			L_thigh1			L_thigh2			L_thigh3			L_thigh4			r.ASIS			r.PSIS			L.ASIS			L.PSIS			C7			R_Shoulder			L_Shoulder			R_Sternum			L_Sternum			R_humerus			R_elbow_med			R_elbow_lat			R_forearm			R_wrist_radius			R_wrist_ulna			L_humerus			L_elbow_med			L_elbow_lat			L_forearm			L_wrist_radius			L_wrist_ulna			R_HJC			L_HJC			R_HJC_reg			L_HJC_reg			
		X1	Y1	Z1	X2	Y2	Z2	X3	Y3	Z3	X4	Y4	Z4	X5	Y5	Z5	X6	Y6	Z6	X7	Y7	Z7	X8	Y8	Z8	X9	Y9	Z9	X10	Y10	Z10	X11	Y11	Z11	X12	Y12	Z12	X13	Y13	Z13	X14	Y14	Z14	X15	Y15	Z15	X16	Y16	Z16	X17	Y17	Z17	X18	Y18	Z18	X19	Y19	Z19	X20	Y20	Z20	X21	Y21	Z21	X22	Y22	Z22	X23	Y23	Z23	X24	Y24	Z24	X25	Y25	Z25	X26	Y26	Z26	X27	Y27	Z27	X28	Y28	Z28	X29	Y29	Z29	X30	Y30	Z30	X31	Y31	Z31	X32	Y32	Z32	X33	Y33	Z33	X34	Y34	Z34	X35	Y35	Z35	X36	Y36	Z36	X37	Y37	Z37	X38	Y38	Z38	X39	Y39	Z39	X40	Y40	Z40	X41	Y41	Z41	X42	Y42	Z42	X43	Y43	Z43	X44	Y44	Z44	X45	Y45	Z45	X46	Y46	Z46	X47	Y47	Z47	X48	Y48	Z48	X49	Y49	Z49	X50	Y50	Z50	X51	Y51	Z51	

113	1.12000000	-175.95317	585.56668	-298.20272	-154.79510	438.88782	-300.27380	-297.02514	100.93291	-301.41320	-358.04837	70.95053	-363.41814	-163.39377	41.79807	-270.85459	-126.69571	71.52348	-321.67297	-250.79997	596.71051	-838.55382	-214.99390	402.03901	-881.41528	-339.91055	118.55791	-925.67822	-396.09950	75.18623	-871.29289	-197.77312	36.65706	-970.69744	-157.88452	69.66473	-911.88582	-184.63573	328.07355	-306.77990	-218.66572	451.67207	-263.36469	-249.75619	344.13149	-258.12803	-292.62302	434.08734	-910.92008	-322.69910	316.65123	-914.75193	-335.19649	829.18779	-276.36888	-250.00098	757.41623	-275.56975	-275.75447	692.29281	-271.09072	-410.33681	747.87807	-300.43088	-320.50959	667.62294	-294.75216	-363.98963	854.54607	-736.26927	-283.17360	758.93341	-786.23077	-454.18717	792.15083	-747.00350	-371.31173	697.80602	-807.02397	-364.90585	954.98474	-351.18770	-505.52633	1080.76360	-444.82573	-387.63836	924.60956	-622.26344	-505.77091	1071.85454	-536.38177	-79.01627	1319.79108	-539.29060	-5.33779	1227.49015	-383.83508	-49.44886	1248.67354	-699.69646	-24.37700	1162.28900	-521.05619	-32.88394	1160.80688	-562.99186	56.16713	1002.75326	-321.76815	15.81009	845.42283	-331.15191	53.07279	884.43826	-258.41018	208.19821	954.68185	-384.91028	267.32749	988.00271	-442.82421	286.72223	958.81162	-429.60679	25.94114	1011.68971	-770.67073	-26.78434	885.51302	-759.90704	15.04780	915.43215	-827.09448	193.90888	967.58823	-737.86930	247.16106	990.98601	-691.26017	259.84413	969.67752	-715.53931	-486.89404	920.99720	-376.90766	-504.02794	905.73072	-573.04649	-480.08146	920.23482	-386.45510	-480.56220	902.73754	-566.25915	
114	1.13000000	-179.90899	587.15631	-298.82053	-158.11704	440.27373	-300.69334	-297.46904	100.75931	-301.41426	-358.18358	70.76794	-363.23311	-163.48507	41.79846	-271.00712	-126.90220	71.93319	-321.74352	-253.18460	597.71897	-839.89328	-216.92046	402.78125	-881.96107	-340.13867	118.41598	-925.92868	-396.16734	75.11959	-871.36560	-197.82155	36.63590	-970.74661	-157.94339	69.83706	-912.05179	-187.22846	329.47855	-307.08346	-222.19187	452.60090	-263.83200	-252.41502	345.13102	-258.52388	-294.57712	434.41215	-911.75999	-324.10145	316.78596	-915.47583	-335.09788	833.50389	-278.39462	-251.10267	760.14044	-277.13464	-278.30605	695.35188	-272.63636	-411.58701	753.48956	-303.10334	-323.24819	671.59577	-296.54577	-361.85007	857.91357	-739.08019	-282.84445	760.47033	-788.20177	-453.12968	797.05303	-749.32191	-372.03020	700.73068	-808.56027	-364.51684	963.79627	-353.41387	-504.92350	1088.75542	-447.88504	-384.78945	933.52097	-624.55795	-504.54807	1079.86037	-539.42252	-81.05774	1333.32195	-540.61011	-7.35377	1241.65324	-384.24662	-50.72090	1262.23863	-700.96607	-24.68518	1176.24713	-521.89120	-32.99664	1174.74897	-564.17869	51.68819	1015.40817	-321.60348	9.38196	858.61336	-330.86490	47.05127	897.39813	-257.82773	202.66073	966.20667	-384.52801	262.11839	998.69460	-442.34826	281.18277	969.69819	-429.27127	22.20315	1023.33440	-771.76685	-32.17043	897.88212	-760.76029	10.07332	927.14651	-827.94529	189.11238	978.18010	-738.67340	242.35684	1001.26000	-691.80126	254.97390	979.78673	-716.04772	-485.97217	929.03212	-380.01396	-501.47158	913.86707	-576.29691	-478.95565	928.60940	-389.42362	-478.21607	911.14512	-569.13838	
115	1.14000000	-183.94227	588.61875	-299.57294	-161.55217	441.60757	-301.04618	-297.75919	100.73346	-301.17050	-358.37260	70.59052	-363.05946	-163.62242	41.85648	-271.14416	-127.10761	72.26077	-321.76338	-255.63436	598.70362	-841.07627	-218.89655	403.54272	-882.52603	-340.33673	118.29689	-926.16655	-396.21425	75.08556	-871.41624	-197.87404	36.58968	-970.82197	-158.01192	70.02710	-912.31255	-189.92236	330.79814	-307.15038	-225.76100	453.55295	-264.35849	-255.39334	346.16656	-258.85150	-296.58509	434.72526	-912.71347	-325.49744	316.95074	-916.12313	-334.97190	837.87781	-280.41207	-252.36844	762.76314	-278.76447	-280.92370	698.55153	-274.19645	-412.80235	759.17402	-305.96306	-326.12886	675.76747	-298.13701	-359.65811	861.21352	-741.97086	-282.56055	761.97812	-790.33809	-452.08323	801.97237	-751.62706	-372.78184	703.78632	-810.26187	-363.89094	972.40089	-355.59275	-503.91148	1096.40393	-451.38417	-381.76916	942.69263	-627.02044	-503.23432	1087.84139	-542.63563	-83.23002	1347.08684	-541.98664	-9.54164	1256.01817	-384.98602	-52.00308	1276.05471	-702.36249	-24.91485	1190.55003	-522.95223	-33.16872	1188.95521	-565.19803	47.03084	1028.20442	-321.53355	2.71692	871.97151	-330.59585	40.72598	910.57069	-257.69598	196.98686	977.88747	-384.27459	256.64668	1009.50266	-442.04219	275.55759	980.83942	-428.72511	18.33856	1035.03554	-772.74085	-37.87115	910.57824	-761.59245	4.71057	938.93025	-828.62338	183.99146	988.92011	-739.34246	237.34679	1011.71009	-692.47689	249.85304	990.05387	-716.64525	-484.81886	936.86185	-383.40706	-498.59403	921.97910	-579.83876	-477.30129	936.68521	-392.09612	-475.96765	919.81642	-571.89791	
116	1.15000000	-188.06880	589.96437	-300.53619	-165.08543	442.96517	-301.36248	-298.09901	100.69877	-300.91658	-358.64334	70.45463	-362.88680	-163.78972	41.98181	-271.23768	-127.36413	72.60785	-321.72003	-258.12406	599.70178	-842.23494	-220.94620	404.35704	-883.11406	-340.54291	118.20373	-926.44342	-396.24362	75.08773	-871.45131	-197.91798	36.51978	-970.91733	-158.05000	70.12813	-912.54496	-192.48058	331.65374	-306.98333	-229.37135	454.57663	-264.98302	-258.25305	347.03245	-258.96583	-298.74812	434.96197	-913.59609	-326.87915	316.94307	-916.58361	-334.88859	842.11760	-282.45016	-253.91541	765.28649	-280.33144	-283.55684	701.83963	-275.77276	-413.91481	764.88780	-308.96475	-329.06219	679.93018	-299.88405	-357.47708	864.52119	-744.88326	-282.34473	763.38222	-792.50410	-451.03438	806.85520	-753.92381	-373.57310	706.85897	-811.96996	-363.35607	980.93585	-357.99521	-502.56586	1103.72236	-455.02667	-378.62328	952.01584	-629.77894	-501.79993	1095.76909	-546.09638	-85.50949	1361.08992	-543.37371	-11.86893	1270.59714	-385.93056	-53.31576	1290.09565	-703.95402	-25.18191	1205.16357	-524.03974	-33.30813	1203.53575	-566.31339	42.20750	1041.30501	-321.61237	-4.05940	885.70485	-330.54219	34.10265	923.98955	-257.81477	191.15992	989.74913	-384.06891	250.65214	1020.95863	-442.30308	269.78469	992.09819	-428.18761	14.32284	1046.79124	-773.58536	-43.87374	923.40885	-762.06963	-1.00431	950.86241	-829.28114	178.63835	999.72214	-739.98055	232.14384	1022.32362	-693.37351	244.49089	1000.46315	-717.44661	-483.57222	944.49844	-387.14169	-495.52669	930.10229	-583.72872	-475.36402	944.46576	-394.83367	-473.85200	928.74954	-574.81237	
